<svg width="19" height="19" viewBox="0 0 19 19" fill="none" xmlns="http://www.w3.org/2000/svg">
<path d="M13 1H6C3.23858 1 1 3.23858 1 6V13.5C1 16.2614 3.23858 18.5 6 18.5H13C15.7614 18.5 18 16.2614 18 13.5V6C18 3.23858 15.7614 1 13 1Z" fill="#FFD4C9"/>
<path d="M9.50001 13.5C16.5 10.5 14 4.00001 9.50001 6.50003C4.50002 4.00003 2.5 10.5 9.50001 13.5Z" fill="#FF3536"/>
<path d="M13 1H6C3.23858 1 1 3.23858 1 6V13.5C1 16.2614 3.23858 18.5 6 18.5H13C15.7614 18.5 18 16.2614 18 13.5V6C18 3.23858 15.7614 1 13 1Z" stroke="#FF3536"/>
<path d="M9.50001 13.5C16.5 10.5 14 4.00001 9.50001 6.50003C4.50002 4.00003 2.5 10.5 9.50001 13.5Z" stroke="#FF3536"/>
</svg>
