<svg width="326" height="216" viewBox="0 0 326 216" fill="none" xmlns="http://www.w3.org/2000/svg">
<path fill-rule="evenodd" clip-rule="evenodd" d="M19.5 5.5C19.5 2 13.5 0.5 13 1C14 5.5 0.5 38 0.5 38L4.5 43C5.5 41 21.5 41.5 21.5 41.5C22.5 41.5 21 35.5 21 35.5C20.5 34.5 6.5 38 6.5 38C6 36 19.5 5.5 19.5 5.5ZM37 15C37 15 41.5 17.5 41 19C39.1201 18.53 27.5214 29.5459 29.4573 35.438C29.6872 36.1378 30.4731 36.4299 31.0659 35.9926C35.1294 32.9946 42.5 18 42.5 18C43.5 17 46.5 19.5 46.5 19.5C39.5 34 42.5 39.5 42.5 39.5H38.5C35.8939 38.7554 37.446 33.0211 38.4088 30.1404C36.4516 33.9204 30.5 39.5 30.5 39.5H28C23 40 24.5 31 24.5 31C27 18 37 15 37 15ZM9 62C7.5 63.5 16.5 143.5 16.5 143.5L29 142.5L32 114.5C32 114.5 85 105 72.5 63.5C72.5 63.5 54 51 9 62ZM32 105.154L36.5 66.1537C36.5 66.1537 40.1825 65.8079 42.5 66.1537C65 83.1537 33.5 108.154 32 105.154Z" fill="white"/>
<path d="M111 77.5L84 82L90.5 143.5L103 142.5L111 77.5Z" fill="#FFBD48"/>
<path d="M108 59C108 65.6274 102.627 71 96 71C89.3726 71 84 65.6274 84 59C84 52.3726 89.3726 47 96 47C102.627 47 108 52.3726 108 59Z" fill="#FFBD48"/>
<path d="M129.5 78V87L154 89.5L125.5 135V143L179 141.5L178.5 129L140 133L182 92C180.5 88 180 79 180 79L129.5 78Z" fill="#FF3536"/>
<path d="M199.5 78V87L224.5 89.398L196 134.898V143L249 142V129.5L210.5 133.5L252 92C250.5 88 250.5 79 250.5 79L199.5 78Z" fill="#60BB28"/>
<path fill-rule="evenodd" clip-rule="evenodd" d="M276 100.5C276 100.5 272.5 88 270.5 82C324 69.5 332.5 86.5 321 142.5L309 144.5L307 125C295.865 143.814 282.666 145.822 276.46 145.287C274.103 145.084 272.234 143.491 270.925 141.521C243.937 100.913 305 109.5 305 109.5C302 86 276 100.5 276 100.5ZM285.025 127.426C283.602 124.554 283.45 122.343 285.622 118.013C286.418 116.427 288.087 115.5 289.861 115.5H304.145C304.819 115.5 305.295 116.155 305.056 116.786C301.608 125.873 293.689 128.717 289.382 129.603C287.6 129.97 285.833 129.057 285.025 127.426Z" fill="white"/>
<path fill-rule="evenodd" clip-rule="evenodd" d="M107.5 182L98.5 204.5C98.5 204.5 102 208.5 103 207.5C103 207.5 105 195.5 107.5 194C108.692 198.173 129.175 190.306 120.577 180.766C119.067 179.091 116.861 178.237 114.615 178.032C110.61 177.667 103.983 177.681 100 181C100 181 101 185.5 102 185L107.5 182ZM108 191.5L113.5 180.5C114.109 180.511 114.684 180.495 115.226 180.48C117.537 180.415 119.258 180.367 120.5 182.5C122.5 187.5 117.5 191.5 108 191.5Z" fill="white"/>
<path fill-rule="evenodd" clip-rule="evenodd" d="M128.5 187.5C125.216 187.938 115.768 198.12 121.638 204.744C122.447 205.657 123.628 206.242 124.843 206.132C126.642 205.97 128.642 204.811 132.197 201.301C132.377 201.123 132.424 200.847 132.31 200.621C132.148 200.296 131.732 200.195 131.439 200.408L126.5 204C123 205 123.5 200.5 123.5 200.5C135.5 196.5 136 186.5 128.5 187.5ZM124 198.5C126 193 127 192 130.5 191C130.5 194.5 127.5 197.5 124 198.5Z" fill="white"/>
<path d="M141.5 177C141.795 175.601 142.403 174.932 144.5 174C157.5 188 145.5 207 139 206.5C130.5 205 134 195 142 187.5C144.5 186 146 190 146 190C140.393 194.313 136.647 201.602 137.969 204.166C138.367 204.937 139.429 204.738 140.119 204.212C148.876 197.529 147.266 185.649 141.5 177Z" fill="white"/>
<path d="M214.421 177C214.716 175.601 215.324 174.932 217.421 174C230.421 188 218.421 207 211.921 206.5C203.421 205 206.921 195 214.921 187.5C217.421 186 218.921 190 218.921 190C213.314 194.313 209.567 201.602 210.89 204.166C211.288 204.937 212.35 204.738 213.04 204.212C221.797 197.529 220.187 185.649 214.421 177Z" fill="white"/>
<path d="M158 188C161.35 187.47 161.404 188.409 162 190.5C156 194 152.5 201 154 203C156 202.5 159.748 196.956 163.5 189.5C166.166 190.378 167.227 190.36 166 192.5C162.721 198.219 162.5 201 163.5 205.5C160.158 205.775 157 206 160.5 197.5C157.698 202.738 156.186 205.695 154 206C146 205.5 151 191.5 158 188Z" fill="white"/>
<path d="M230.921 188C234.271 187.47 234.325 188.409 234.921 190.5C228.921 194 225.421 201 226.921 203C228.921 202.5 232.668 196.956 236.421 189.5C239.087 190.378 240.148 190.36 238.921 192.5C235.642 198.219 235.421 201 236.421 205.5C233.079 205.775 229.921 206 233.421 197.5C230.619 202.738 229.107 205.695 226.921 206C218.921 205.5 223.921 191.5 230.921 188Z" fill="white"/>
<path d="M280.099 188.145C283.449 187.616 283.503 188.554 284.099 190.645C278.099 194.145 274.599 201.145 276.099 203.145C278.099 202.645 281.847 197.102 285.599 189.645C288.266 190.523 289.326 190.505 288.099 192.645C284.821 198.364 284.599 201.145 285.599 205.645C282.258 205.92 279.099 206.145 282.599 197.645C279.797 202.883 278.286 205.84 276.099 206.145C268.099 205.645 273.099 191.645 280.099 188.145Z" fill="white"/>
<path d="M314.278 188.29C317.628 187.761 317.682 188.7 318.278 190.79C312.277 194.29 308.778 201.29 310.278 203.29C312.278 202.79 316.025 197.247 319.778 189.79C322.444 190.668 323.504 190.65 322.278 192.79C318.999 198.509 318.778 201.29 319.778 205.79C316.436 206.065 313.278 206.29 316.778 197.79C313.975 203.028 312.464 205.985 310.278 206.29C302.278 205.79 307.278 191.79 314.278 188.29Z" fill="white"/>
<path d="M179.5 187.5C186 189 179 200 177.5 194.5C180 191 179.5 190.5 178.5 189.5C171.776 194.437 170.5 201.5 173.5 203.5C178 201 181 199.5 180 201C176.5 205.5 174 204.5 172 208.5C176 206.5 177.5 207.5 178 210C178 210 177.5 211 171 216C168.5 214.5 170.333 213.136 174.5 209.5C174.5 209.5 171.5 211.5 170 210.5C168.5 209.5 173 205 173 205L171.5 205.5C165 205 165.5 185.5 179.5 187.5Z" fill="white"/>
<path d="M192.5 187C183 188.5 178.5 204 186.5 206C191.5 208 202.5 194.5 196 190C194.842 189.53 194.516 189.758 194.5 191C195 199 190.173 203.449 187 203.5C184 200 190 192.5 193.5 191C194.808 189.731 194.655 188.867 192.5 187Z" fill="white"/>
<path d="M262.5 180.5C255.151 193.957 254 203.5 254 207.5C245 206 256.5 181 258.5 178.5C259.934 178.595 260.863 179.316 262.5 180.5Z" fill="white"/>
<path d="M271 202.5C269.5 208 262.5 207 260.5 203C260.5 201.452 261.519 196.231 263.801 190.836L262 191C261.217 189.998 261.043 189.448 261.5 188.5H264.869C266.116 185.972 267.652 183.517 269.5 181.5C271.212 181.73 272.716 182.314 273.5 183.5C272.48 185.087 271.408 186.777 270.384 188.5H273C273.551 189.142 273.449 189.46 273 190L269.321 190.334C266.331 195.646 264.114 201.034 265.5 204.5C267.594 205.227 270 201.5 271 202.5Z" fill="white"/>
<path d="M289.5 178C287.775 181.165 286 182.5 283 184.5C283.5 187.5 291.5 183 292 182.5C292.5 182 291.739 179.928 289.5 178Z" fill="white"/>
<path d="M293.5 207.5C291.5 202.5 301 178 305.5 177C304 175 302.97 174.126 301 174C290.5 191.5 285.5 207.5 293.5 207.5Z" fill="white"/>
<path d="M301.5 206C302 200.5 302 198.5 307.5 192C307 190.5 303.803 189.017 303 189C298.5 195 296 205 301.5 206Z" fill="white"/>
<path d="M311 182C311.537 182.751 309.428 184.913 307.04 187.107C306.423 187.674 305.441 187.265 305.418 186.428C305.353 183.979 305.359 180.151 306 179.5C306.956 178.529 311.546 181.436 311 182Z" fill="white"/>
</svg>
